<?xml version="1.0" ?><!DOCTYPE svg  PUBLIC '-//W3C//DTD SVG 1.1//EN'  'http://www.w3.org/Graphics/SVG/1.1/DTD/svg11.dtd'><svg enable-background="new 0 0 64 64" height="64px" id="Layer_1" version="1.1" viewBox="0 0 64 64" width="64px" xml:space="preserve" xmlns="http://www.w3.org/2000/svg" xmlns:xlink="http://www.w3.org/1999/xlink"><g><g><path d="M15.716,21.896C18.627,16.596,24.289,13,30.797,13    c9.482,0,17.168,7.633,17.168,17.051c0,1.321-0.151,2.608-0.438,3.844" fill="none" stroke="#fff" stroke-miterlimit="10" stroke-width="2"/><path d="M25,49.043H14.609C7.094,49.043,1,42.986,1,35.517    C1,28.046,7.094,21.99,14.609,21.99c3.487,0,6.667,1.303,9.075,3.445" fill="none" stroke="#fff" stroke-miterlimit="10" stroke-width="2"/><path d="M48.441,27.55C49.533,27.193,50.699,27,51.91,27    C58.035,27,63,31.934,63,38.021c0,6.087-4.965,11.021-11.09,11.021H40" fill="none" stroke="#fff" stroke-miterlimit="10" stroke-width="2"/></g><path d="M38.031,49.154   C36.582,50.886,34.402,51.99,31.96,52c-4.379,0.017-7.943-3.496-7.959-7.845" fill="none" stroke="#009688" stroke-linejoin="round" stroke-miterlimit="10" stroke-width="2"/><path d="M25.986,40.023   c1.433-1.834,3.642-3.015,6.124-3.024c4.341-0.017,7.873,3.552,7.89,7.97" fill="none" stroke="#009688" stroke-linejoin="round" stroke-miterlimit="10" stroke-width="2"/><polyline fill="none" points="25.028,36.026    25.047,41.089 29.86,41.07  " stroke="#009688" stroke-linejoin="round" stroke-miterlimit="10" stroke-width="2"/><polyline fill="none" points="39.035,52.941    39.016,48.004 34.047,48.023  " stroke="#009688" stroke-linejoin="round" stroke-miterlimit="10" stroke-width="2"/></g></svg>