<?xml version="1.0" encoding="UTF-8" standalone="no"?>
<svg
   xmlns:dc="http://purl.org/dc/elements/1.1/"
   xmlns:cc="http://creativecommons.org/ns#"
   xmlns:rdf="http://www.w3.org/1999/02/22-rdf-syntax-ns#"
   xmlns:svg="http://www.w3.org/2000/svg"
   xmlns="http://www.w3.org/2000/svg"
   xmlns:sodipodi="http://sodipodi.sourceforge.net/DTD/sodipodi-0.dtd"
   xmlns:inkscape="http://www.inkscape.org/namespaces/inkscape"
   height="2048px"
   style="shape-rendering:geometricPrecision; text-rendering:geometricPrecision; image-rendering:optimizeQuality; fill-rule:evenodd; clip-rule:evenodd"
   viewBox="0 0 2048 2048"
   width="2048px"
   xml:space="preserve"
   id="svg2"
   version="1.1"
   inkscape:version="0.91 r13725"
   sodipodi:docname="infrastructure.svg"><metadata
     id="metadata32"><rdf:RDF><cc:Work
         rdf:about=""><dc:format>image/svg+xml</dc:format><dc:type
           rdf:resource="http://purl.org/dc/dcmitype/StillImage" /><dc:title></dc:title></cc:Work></rdf:RDF></metadata><sodipodi:namedview
     pagecolor="#ffffff"
     bordercolor="#666666"
     borderopacity="1"
     objecttolerance="10"
     gridtolerance="10"
     guidetolerance="10"
     inkscape:pageopacity="0"
     inkscape:pageshadow="2"
     inkscape:window-width="1570"
     inkscape:window-height="982"
     id="namedview30"
     showgrid="false"
     inkscape:zoom="0.11523438"
     inkscape:cx="1041.3559"
     inkscape:cy="1371.1186"
     inkscape:window-x="0"
     inkscape:window-y="29"
     inkscape:window-maximized="0"
     inkscape:current-layer="Layer_x0020_1" /><defs
     id="defs4"><style
       type="text/css"
       id="style6"><![CDATA[
    .fil0 {fill:none}
    .fil1 {fill:#212121;fill-rule:nonzero}
   ]]></style></defs><g
     id="Layer_x0020_1"><g
       id="_392722200"><rect
         class="fil0"
         height="2048"
         id="_392720208"
         width="2048" /><rect
         class="fil0"
         height="1536"
         id="_392719272"
         width="1536"
         x="255.999"
         y="255.999" /></g><path
       class="fil1"
       d="M1536.67 1312l-1025.33 0 0 191.999 1025.33 0 0 -191.999zm-1041.04 -64.0016l1056.74 0c15.4937,0 28.754,7.79528 37.6465,20.3894 6.57756,9.31418 10.6512,21.6166 10.6512,34.6902l0 209.843c0,13.0642 -4.07481,25.3689 -10.6547,34.6878 -8.89016,12.5917 -22.1457,20.3917 -37.6429,20.3917l-1056.74 0c-15.4949,0 -28.7504,-7.80237 -37.6418,-20.3941 -6.57875,-9.31418 -10.6559,-21.6201 -10.6559,-34.6855l0 -209.843c0,-13.0736 4.07599,-25.3748 10.6524,-34.6878 8.89371,-12.5953 22.154,-20.3917 37.6453,-20.3917z"
       id="path12"
       style="fill:#ffffff;fill-opacity:1" /><polygon
       class="fil1"
       points="576,1760 1472,1760 1472,1824 576,1824 "
       id="polygon14"
       style="fill:#ffffff;fill-opacity:1" /><polygon
       class="fil1"
       points="1056,1600 1056,1792 991.999,1792 991.999,1600 "
       id="polygon16"
       style="fill:#ffffff;fill-opacity:1" /><polygon
       class="fil1"
       points="544.001,1376 672.001,1376 672.001,1440 544.001,1440 "
       id="polygon18"
       style="fill:#009688;fill-opacity:1" /><path
       class="fil1"
       d="M1536.67 960.001l-1025.33 0 0 191.999 1025.33 0 0 -191.999zm-1041.04 -64.0016l1056.74 0c15.4937,0 28.754,7.79528 37.6465,20.3894 6.57638,9.313 10.6512,21.6154 10.6512,34.6902l0 209.843c0,13.0618 -4.07481,25.3689 -10.6547,34.6878 -8.89016,12.587 -22.1433,20.3917 -37.6429,20.3917l-1056.74 0c-15.4949,0 -28.7504,-7.80237 -37.6418,-20.3941 -6.57875,-9.31654 -10.6559,-21.6236 -10.6559,-34.6855l0 -209.843c0,-13.0748 4.07599,-25.3748 10.6524,-34.6878 8.89371,-12.5953 22.154,-20.3917 37.6453,-20.3917z"
       id="path20"
       style="fill:#ffffff;fill-opacity:1" /><polygon
       class="fil1"
       points="544.001,1024 672.001,1024 672.001,1088 544.001,1088 "
       id="polygon22"
       style="fill:#009688;fill-opacity:1" /><path
       class="fil1"
       d="M1536.67 608.001l-1025.33 0 0 191.999 1025.33 0 0 -191.999zm-1041.04 -64.0016l1056.74 0c15.4937,0 28.754,7.79528 37.6465,20.3894 6.57638,9.313 10.6512,21.6154 10.6512,34.6902l0 209.843c0,13.063 -4.07363,25.3689 -10.6547,34.6878 -8.89016,12.5917 -22.1457,20.3917 -37.6429,20.3917l-1056.74 0c-15.4949,0 -28.7504,-7.80237 -37.6418,-20.3941 -6.57993,-9.31536 -10.6559,-21.6213 -10.6559,-34.6855l0 -209.843c0,-13.0748 4.07599,-25.3748 10.6524,-34.6878 8.89371,-12.5953 22.154,-20.3917 37.6453,-20.3917z"
       id="path24"
       style="fill:#ffffff;fill-opacity:1" /><polygon
       class="fil1"
       points="544.001,671.999 672.001,671.999 672.001,736.001 544.001,736.001 "
       id="polygon26"
       style="fill:#009688;fill-opacity:1" /><path
       class="fil1"
       d="M1629.59 927.101c20.3622,-11.4921 38.9977,-25.6866 55.4138,-42.1028 46.3323,-46.3323 75.0001,-110.332 75.0001,-181.002 0,-55.0855 -17.4449,-105.816 -47.0587,-147.239 -30.6331,-42.8504 -74.2867,-75.8634 -125.139,-93.5741l-22.1492 -7.71379 0.773623 -23.4118c0.158268,-4.813 0.623623,-8.08583 1.08543,-11.3516 0.236221,-1.67008 0.473622,-3.34134 0.473622,-4.71378 0,-97.193 -39.4028,-185.196 -103.101,-248.895 -63.6969,-63.6957 -151.694,-103.099 -248.892,-103.099 -64.5237,0 -124.585,17.5382 -176.111,47.9859 -53.9221,31.8662 -98.6363,77.8595 -129.489,132.705l-11.1532 19.8272 -22.2225 -3.95197c-8.01142,-1.42441 -15.7134,-2.61969 -22.7835,-3.37914 -6.94961,-0.745276 -14.3067,-1.19055 -22.2366,-1.19055 -55.076,0 -105.782,17.4414 -147.181,47.0481 -42.8339,30.6319 -75.8316,74.289 -93.5457,125.15l-8.0067 22.9902 -24.2433 -1.61457c-2.91614,-0.193701 -6.02953,-0.618898 -9.14883,-1.04291 -1.94646,-0.265748 -3.90591,-0.532678 -5.87717,-0.532678 -70.6701,0 -134.672,28.6677 -181.003,74.9989 -46.3347,46.3347 -75.0024,110.339 -75.0024,181.004 0,70.6725 28.6666,134.675 74.9977,181.006 16.4162,16.4162 35.054,30.6118 55.4174,42.1028 -2.04095,7.82245 -3.07677,15.9083 -3.07677,23.9729l0 45.9827c-36.6343,-16.1138 -69.6792,-38.8949 -97.591,-66.8079 -57.9154,-57.9154 -93.7489,-137.919 -93.7489,-226.257 0,-88.3312 35.8347,-168.336 93.7536,-226.255 57.0662,-57.065 135.574,-92.693 222.37,-93.7253 23.4083,-53.5004 60.8327,-99.4513 107.706,-132.972 51.9603,-37.1599 115.423,-59.0504 184.18,-59.0504 9.41221,0 19.1138,0.633071 28.9878,1.69134 1.73268,0.185433 3.43701,0.381496 5.11772,0.584646 35.6091,-56.1827 84.0308,-103.453 141.28,-137.284 61.193,-36.1607 132.347,-56.9882 208.61,-56.9882 114.863,0 218.86,46.5685 294.142,121.85 74.4142,74.4154 120.767,176.889 121.827,290.171 53.504,23.4083 99.4572,60.8516 132.978,107.74 37.167,51.9874 59.0611,115.476 59.0611,184.238 0,88.3359 -35.8359,168.337 -93.7513,226.252 -27.9118,27.9118 -60.9556,50.6918 -97.5863,66.8079l0 -45.978c0,-8.06575 -1.03701,-16.1539 -3.07796,-23.9776z"
       id="path28"
       style="fill:#ffffff;fill-opacity:1" /></g></svg>